name analog
datacolumns 19
datarows 29
range 0.3195 0.3335
endheader
time	ground_force_vx	ground_force_vy	ground_force_vz	ground_force_px	ground_force_py	ground_force_pz	l_ground_force_vx	l_ground_force_vy	l_ground_force_vz	l_ground_force_px	l_ground_force_py	l_ground_force_pz	ground_torque_x	ground_torque_y	ground_torque_z	l_ground_torque_x	l_ground_torque_y	l_ground_torque_z
0.3195	-0.0	-0.0	-0.0	-0.0	-0.0	-0.0	-1.129521369934082	16.9254093170166	-876.5675659179688	-0.0	-0.0	-0.0	-0.0	-0.0	-0.0	263137.78125	-26488.4453125	-4160.3359375
0.32	-0.0	-0.0	-0.0	-0.0	-0.0	-0.0	-1.703380107879639	16.66039276123047	-874.8584594726562	-0.0	-0.0	-0.0	-0.0	-0.0	-0.0	262671.46875	-26615.716796875	-4031.2890625
0.3205	-0.0	-0.0	-0.0	-0.0	-0.0	-0.0	-2.549125909805298	17.399372100830078	-875.1023559570312	-0.0	-0.0	-0.0	-0.0	-0.0	-0.0	262791.0625	-26497.404296875	-4069.220458984375
0.321	-0.0	-0.0	-0.0	-0.0	-0.0	-0.0	-2.93670654296875	17.850191116333008	-874.4041137695312	-0.0	-0.0	-0.0	-0.0	-0.0	-0.0	262563.75	-26726.994140625	-3883.543701171875
0.3215	-0.0	-0.0	-0.0	-0.0	-0.0	-0.0	-3.137606143951416	17.850414276123047	-871.2994384765625	-0.0	-0.0	-0.0	-0.0	-0.0	-0.0	261547.0	-27002.2734375	-3652.71142578125
0.322	-0.0	-0.0	-0.0	-0.0	-0.0	-0.0	-2.5861001014709477	17.144014358520508	-865.3646850585938	-0.0	-0.0	-0.0	-0.0	-0.0	-0.0	259691.796875	-26982.12890625	-3130.9091796875
0.3225	-0.0	-0.0	-0.0	-0.0	-0.0	-0.0	-3.0161666870117188	16.493202209472656	-860.9556274414062	-0.0	-0.0	-0.0	-0.0	-0.0	-0.0	258042.578125	-26838.787109375	-2997.29248046875
0.323	-0.0	-0.0	-0.0	-0.0	-0.0	-0.0	-3.338106393814087	15.014686584472656	-861.3570556640625	-0.0	-0.0	-0.0	-0.0	-0.0	-0.0	257828.484375	-26942.6953125	-2786.980224609375
0.3235	-0.0	-0.0	-0.0	-0.0	-0.0	-0.0	-3.092182159423828	15.21405029296875	-865.207763671875	-0.0	-0.0	-0.0	-0.0	-0.0	-0.0	258866.875	-27263.927734375	-2445.188232421875
0.324	-0.0	-0.0	-0.0	-0.0	-0.0	-0.0	-1.2625882625579834	16.140275955200195	-872.0508422851562	-0.0	-0.0	-0.0	-0.0	-0.0	-0.0	260843.96875	-27967.1484375	-1809.7552490234373
0.3245	-0.0	-0.0	-0.0	-0.0	-0.0	-0.0	-0.187946543097496	17.477214813232422	-881.2645874023438	-0.0	-0.0	-0.0	-0.0	-0.0	-0.0	263366.4375	-28581.8046875	-1252.645263671875
0.325	-0.0	-0.0	-0.0	-0.0	-0.0	-0.0	1.607443928718567	18.4156551361084	-889.8616943359375	-0.0	-0.0	-0.0	-0.0	-0.0	-0.0	265697.125	-29018.62890625	-724.7051391601562
0.3255	-0.0	-0.0	-0.0	-0.0	-0.0	-0.0	2.8501908779144287	19.14358329772949	-894.5714721679688	-0.0	-0.0	-0.0	-0.0	-0.0	-0.0	267582.625	-29581.37890625	-137.6033172607422
0.326	-0.0	-0.0	-0.0	-0.0	-0.0	-0.0	4.812586307525635	19.15470123291016	-900.2437744140625	-0.0	-0.0	-0.0	-0.0	-0.0	-0.0	268931.0625	-29602.0703125	486.6075439453125
0.3265	-0.0	-0.0	-0.0	-0.0	-0.0	-0.0	5.511014938354492	19.375598907470703	-902.68798828125	-0.0	-0.0	-0.0	-0.0	-0.0	-0.0	269729.25	-29366.505859375	880.2315673828125
0.327	-0.0	-0.0	-0.0	-0.0	-0.0	-0.0	5.544837951660156	19.617938995361328	-904.0848388671876	-0.0	-0.0	-0.0	-0.0	-0.0	-0.0	269964.4375	-28957.076171875	883.877197265625
0.3275	-0.0	-0.0	-0.0	-0.0	-0.0	-0.0	4.712035655975342	18.98916244506836	-904.4342041015624	-0.0	-0.0	-0.0	-0.0	-0.0	-0.0	269958.28125	-28239.2421875	720.1113891601562
0.328	-0.0	-0.0	-0.0	-0.0	-0.0	-0.0	3.83632230758667	18.404239654541016	-903.3870239257812	-0.0	-0.0	-0.0	-0.0	-0.0	-0.0	269816.84375	-28077.068359375	363.37152099609375
0.3285	-0.0	-0.0	-0.0	-0.0	-0.0	-0.0	2.884213447570801	17.895904541015625	-905.0479736328124	-0.0	-0.0	-0.0	-0.0	-0.0	-0.0	270078.125	-27512.765625	255.1261749267578
0.329	-0.0	-0.0	-0.0	-0.0	-0.0	-0.0	3.138463497161865	17.819536209106445	-903.65185546875	-0.0	-0.0	-0.0	-0.0	-0.0	-0.0	269437.375	-26967.802734375	184.7424774169922
0.3295	-0.0	-0.0	-0.0	-0.0	-0.0	-0.0	2.930612087249756	17.563796997070312	-899.2462768554688	-0.0	-0.0	-0.0	-0.0	-0.0	-0.0	268112.375	-26274.494140625	270.4734191894531
0.33	-0.0	-0.0	-0.0	-0.0	-0.0	-0.0	3.3071939945220947	16.230010986328125	-888.0252685546875	-0.0	-0.0	-0.0	-0.0	-0.0	-0.0	264936.9375	-25572.443359375	458.5482177734375
0.3305	-0.0	-0.0	-0.0	-0.0	-0.0	-0.0	2.006586790084839	13.5804443359375	-877.7827758789062	-0.0	-0.0	-0.0	-0.0	-0.0	-0.0	261187.953125	-24702.283203125	260.5634460449219
0.331	-0.0	-0.0	-0.0	-0.0	-0.0	-0.0	0.4225155115127563	10.746094703674316	-869.7545776367188	-0.0	-0.0	-0.0	-0.0	-0.0	-0.0	258465.84375	-23999.740234375	133.0006561279297
0.3315	-0.0	-0.0	-0.0	-0.0	-0.0	-0.0	0.7515296339988708	8.798422813415527	-864.7151489257812	-0.0	-0.0	-0.0	-0.0	-0.0	-0.0	256162.296875	-23692.044921875	402.3938293457031
0.332	-0.0	-0.0	-0.0	-0.0	-0.0	-0.0	0.4906385540962219	7.208578109741211	-860.7621459960938	-0.0	-0.0	-0.0	-0.0	-0.0	-0.0	254414.625	-23377.1953125	714.1168823242188
0.3325	-0.0	-0.0	-0.0	-0.0	-0.0	-0.0	-0.2321213334798813	5.849829196929932	-857.2486572265625	-0.0	-0.0	-0.0	-0.0	-0.0	-0.0	253167.109375	-23068.81640625	781.9671630859375
0.333	-0.0	-0.0	-0.0	-0.0	-0.0	-0.0	-0.7983970642089844	5.387622833251953	-857.167236328125	-0.0	-0.0	-0.0	-0.0	-0.0	-0.0	252588.578125	-22710.443359375	788.2393188476562
0.3335	-0.0	-0.0	-0.0	-0.0	-0.0	-0.0	-1.610466718673706	5.37401008605957	-858.1341552734375	-0.0	-0.0	-0.0	-0.0	-0.0	-0.0	252777.953125	-22513.49609375	744.1246337890625
